<svg width="55" height="55" viewBox="0 0 55 55" fill="none" xmlns="http://www.w3.org/2000/svg">
<rect width="55" height="55" rx="27.5" fill="#B40606"/>
<g clip-path="url(#clip0)">
<path d="M42.9532 39.6035L42.7188 38.2793C42.5137 37.125 41.6993 36.1582 40.5919 35.7539L39.6602 35.4141V33.9023C39.6661 33.8965 39.6719 33.8965 39.6719 33.8906C40.2344 33.334 40.5626 32.5664 40.5626 31.7812V30.0352C40.5626 28.4473 39.2735 27.1582 37.6856 27.1582C36.0977 27.1582 34.8087 28.4473 34.8087 30.0352V31.834C34.8087 32.6484 35.1602 33.3926 35.711 33.9199V35.4375L34.8204 35.7598C34.7442 35.7891 34.6973 35.8066 34.668 35.8125C34.5919 35.8418 34.5743 35.8477 34.4981 35.8828L34.4512 35.9062C34.2344 36.0117 34.1465 36.2754 34.252 36.4922C34.3282 36.6504 34.4864 36.7383 34.6446 36.7383C34.709 36.7383 34.7735 36.7266 34.8379 36.6914L34.8848 36.668C34.9024 36.6621 34.9141 36.6562 34.92 36.6504C34.9258 36.6445 34.9376 36.6445 34.9551 36.6387C34.9903 36.627 35.0372 36.6094 35.1192 36.5801L36.086 36.2285C36.5606 36.5625 37.1231 36.7324 37.6856 36.7324C38.254 36.7324 38.8223 36.5625 39.3028 36.2168L40.293 36.5742C41.1016 36.8672 41.6993 37.5762 41.8516 38.4258L42.086 39.75C42.1446 40.0898 42.0567 40.4355 41.834 40.6992C41.6114 40.9629 41.2891 41.1152 40.9434 41.1152H34.4454C33.8067 41.1152 33.2852 40.5996 33.2852 39.9609C33.2852 39.8906 33.2911 39.8144 33.3087 39.7383L33.5665 38.4023C33.6133 38.1445 33.7071 37.8984 33.836 37.6641C33.9532 37.4531 33.8829 37.1836 33.6719 37.0664C33.461 36.9492 33.1915 37.0195 33.0743 37.2305C32.9922 37.377 32.9219 37.5293 32.8633 37.6816C32.6817 37.1953 32.3829 36.75 31.9903 36.3984C31.6739 36.1113 31.3047 35.8887 30.9004 35.7422L29.9688 35.4023V33.8906C29.9747 33.8848 29.9805 33.8848 29.9805 33.8789C30.543 33.3223 30.8711 32.5547 30.8711 31.7695V30.0234C30.8711 29.8301 30.8536 29.6484 30.8184 29.4668C31.668 29.2617 32.3067 28.4941 32.3067 27.5801C32.3067 26.5078 31.4336 25.6406 30.3672 25.6406C29.4297 25.6406 28.6504 26.3027 28.4688 27.1875C28.3165 27.1641 28.1583 27.1465 28.0001 27.1465C26.4122 27.1465 25.1231 28.4355 25.1231 30.0234V31.8223C25.1231 32.6367 25.4747 33.3809 26.0254 33.9082V35.4375L25.1348 35.7598C24.2266 36.0879 23.5118 36.8086 23.1719 37.6934C22.8379 36.8027 22.1231 36.082 21.209 35.7539L20.2774 35.4141V33.9023C20.2833 33.8965 20.2891 33.8965 20.2891 33.8906C20.8516 33.334 21.1797 32.5664 21.1797 31.7812V30.0352C21.1797 28.4473 19.8907 27.1582 18.3028 27.1582C16.7149 27.1582 15.4258 28.4473 15.4258 30.0352V31.834C15.4258 32.6484 15.7774 33.3926 16.3282 33.9199V35.4375L15.4434 35.7598C14.3536 36.1523 13.545 37.1074 13.3282 38.2441L13.0704 39.5801C12.9532 40.1777 13.1114 40.793 13.504 41.2617C13.8907 41.7305 14.4649 42 15.0743 42H21.5547C22.2051 42 22.7794 41.6953 23.1544 41.2266C23.5294 41.7012 24.1036 42 24.754 42H31.252C31.9024 42 32.4766 41.6953 32.8516 41.2266C33.2266 41.7012 33.8008 42 34.4512 42H40.9493C41.5528 42 42.1212 41.7363 42.5137 41.2676C42.9063 40.7988 43.0587 40.1953 42.9532 39.6035ZM35.6817 30.0352C35.6817 28.9336 36.5782 28.0371 37.6797 28.0371C38.67 28.0371 39.4903 28.7578 39.6544 29.707C39.5196 29.7773 39.379 29.8477 39.2383 29.9062C38.4122 30.2402 37.6797 30.2168 37.4102 30.0293C37.211 29.8887 36.9356 29.9355 36.8008 30.1348C36.6602 30.334 36.7071 30.6094 36.9063 30.7441C37.1876 30.9375 37.5743 31.0371 38.0254 31.0371C38.4942 31.0371 39.0333 30.9316 39.5665 30.7148C39.6075 30.6973 39.6485 30.6797 39.6895 30.6621V31.7754C39.6895 32.3262 39.461 32.8711 39.0626 33.2578C38.6758 33.6387 38.1778 33.8437 37.6504 33.832C36.5665 33.8086 35.6876 32.9121 35.6876 31.834L35.6817 30.0352ZM36.584 35.5137V34.4941C36.9063 34.6289 37.2579 34.7051 37.6212 34.7109C37.6387 34.7109 37.6563 34.7109 37.6739 34.7109C38.0547 34.7109 38.4297 34.6348 38.7696 34.4883V35.5137C38.1251 35.9766 37.2403 35.9766 36.584 35.5137ZM30.3555 26.5312C30.9415 26.5312 31.4161 27.0059 31.4161 27.5918C31.4161 28.125 31.0176 28.5703 30.502 28.6406C30.2266 28.1426 29.8047 27.7324 29.295 27.4746C29.3594 26.9473 29.8106 26.5312 30.3555 26.5312ZM25.9844 30.0352C25.9844 28.9336 26.8809 28.0371 27.9825 28.0371C29.084 28.0371 29.9805 28.9336 29.9805 30.0352V30.0996C29.8868 30.1641 29.7813 30.2168 29.6758 30.2578C28.9551 30.5449 28.1407 30.3398 27.6485 29.748C27.4903 29.5605 27.2149 29.5371 27.0274 29.6895C26.8399 29.8477 26.8165 30.123 26.9688 30.3105C27.4844 30.9316 28.2344 31.2656 29.0079 31.2656C29.3301 31.2656 29.6583 31.207 29.9747 31.084V31.7812C29.9747 32.332 29.7461 32.877 29.3477 33.2637C28.961 33.6445 28.4571 33.8496 27.9356 33.8379C26.8516 33.8145 25.9727 32.918 25.9727 31.8398L25.9844 30.0352ZM27.9297 34.7168C27.9473 34.7168 27.9649 34.7168 27.9825 34.7168C28.3633 34.7168 28.7383 34.6406 29.0782 34.4941V35.5312L27.9825 36.4863L26.8868 35.5254V34.4941C27.209 34.6289 27.5606 34.7051 27.9297 34.7168ZM16.2872 30.0352C16.2872 28.9336 17.1836 28.0371 18.2852 28.0371C19.2754 28.0371 20.0958 28.7578 20.2598 29.707C20.1251 29.7773 19.9844 29.8477 19.8438 29.9062C19.0176 30.2402 18.2852 30.2168 18.0157 30.0293C17.8165 29.8887 17.5411 29.9355 17.4063 30.1348C17.2657 30.334 17.3126 30.6094 17.5118 30.7441C17.793 30.9375 18.1797 31.0371 18.6309 31.0371C19.0997 31.0371 19.6387 30.9316 20.1719 30.7148C20.2129 30.6973 20.254 30.6797 20.295 30.6621V31.7754C20.295 32.3262 20.0665 32.8711 19.668 33.2578C19.2813 33.6387 18.7833 33.8437 18.2559 33.832C17.1719 33.8086 16.293 32.9121 16.293 31.834V30.0352H16.2872ZM18.2325 34.7168C18.2501 34.7168 18.2676 34.7168 18.2852 34.7168C18.6661 34.7168 19.0411 34.6406 19.3809 34.4941V35.5195C18.7305 35.9824 17.8399 35.9824 17.1895 35.5195V34.5C17.5118 34.6289 17.8633 34.7051 18.2325 34.7168ZM21.5547 41.1211H15.0567C14.711 41.1211 14.3829 40.9687 14.1661 40.6992C13.9434 40.4297 13.8555 40.084 13.92 39.7441L14.1778 38.4082C14.336 37.5762 14.9336 36.873 15.7305 36.5859L16.6973 36.2344C17.1719 36.5684 17.7344 36.7383 18.2969 36.7383C18.8653 36.7383 19.4336 36.5684 19.9141 36.2227L20.9044 36.5801C21.7129 36.873 22.3106 37.582 22.4629 38.4316L22.7032 39.7559C22.7149 39.8262 22.7208 39.8965 22.7208 39.9609C22.7149 40.5996 22.1934 41.1211 21.5547 41.1211ZM31.2461 41.1211H24.754C24.1153 41.1211 23.5938 40.5996 23.5938 39.9668C23.5938 39.8906 23.5997 39.8203 23.6172 39.7441L23.8751 38.4082C24.0333 37.5762 24.6309 36.873 25.4278 36.5859L26.377 36.2402L27.7012 37.3945C27.7833 37.4648 27.8887 37.5059 27.9883 37.5059C28.0938 37.5059 28.1934 37.4707 28.2754 37.3945L29.6172 36.2227L30.5899 36.5742C30.8887 36.6797 31.1583 36.8437 31.3926 37.0547C31.7852 37.4121 32.0547 37.8984 32.1485 38.4258L32.3887 39.75C32.4004 39.8203 32.4063 39.8906 32.4063 39.9609C32.4063 40.5996 31.8907 41.1211 31.2461 41.1211Z" fill="white"/>
<path d="M17.8634 20.9824V23.543C17.8634 23.7832 18.0626 23.9824 18.3028 23.9824C18.5431 23.9824 18.7423 23.7832 18.7423 23.543V20.9766C21.0216 20.7539 22.8028 18.832 22.8028 16.4941C22.8028 14.0215 20.7872 12 18.3028 12C15.8243 12 13.8028 14.0215 13.8028 16.5C13.8028 18.8379 15.5899 20.7598 17.8634 20.9824ZM18.3028 12.8789C20.3009 12.8789 21.9239 14.502 21.9239 16.5C21.9239 18.498 20.3009 20.1211 18.3028 20.1211C16.3048 20.1211 14.6817 18.498 14.6817 16.5C14.6817 14.502 16.3048 12.8789 18.3028 12.8789Z" fill="white"/>
<path d="M16.4805 18.3223C16.5684 18.4102 16.6797 18.4512 16.7911 18.4512C16.9024 18.4512 17.0137 18.4102 17.1016 18.3223L18.3028 17.1211L19.504 18.3223C19.5919 18.4102 19.7032 18.4512 19.8145 18.4512C19.9258 18.4512 20.0372 18.4102 20.1251 18.3223C20.295 18.1523 20.295 17.8711 20.1251 17.7012L18.9239 16.5L20.1251 15.2988C20.295 15.1289 20.295 14.8477 20.1251 14.6777C19.9551 14.5078 19.6739 14.5078 19.504 14.6777L18.3028 15.8789L17.1016 14.6777C16.9317 14.5078 16.6505 14.5078 16.4805 14.6777C16.3106 14.8477 16.3106 15.1289 16.4805 15.2988L17.6817 16.5L16.4805 17.7012C16.3106 17.8711 16.3106 18.1523 16.4805 18.3223Z" fill="white"/>
<path d="M18.3027 24.5859C18.0625 24.5859 17.8633 24.7852 17.8633 25.0254C17.8633 25.2656 18.0625 25.4648 18.3027 25.4648C18.543 25.4648 18.7422 25.2656 18.7422 25.0254C18.7422 24.7852 18.5488 24.5859 18.3027 24.5859Z" fill="white"/>
<path d="M37.2579 20.9824V23.543C37.2579 23.7832 37.4571 23.9824 37.6974 23.9824C37.9376 23.9824 38.1368 23.7832 38.1368 23.543V20.9766C40.4161 20.7539 42.1974 18.832 42.1974 16.4941C42.1974 14.0098 40.1759 11.9941 37.6974 11.9941C35.2188 11.9941 33.1974 14.0156 33.1974 16.4941C33.1974 18.8379 34.9786 20.7598 37.2579 20.9824ZM37.6974 12.8789C39.6954 12.8789 41.3184 14.502 41.3184 16.5C41.3184 18.498 39.6954 20.1211 37.6974 20.1211C35.6993 20.1211 34.0763 18.498 34.0763 16.5C34.0763 14.502 35.6993 12.8789 37.6974 12.8789Z" fill="white"/>
<path d="M35.8751 18.3223C35.963 18.4102 36.0743 18.4512 36.1856 18.4512C36.2969 18.4512 36.4083 18.4102 36.4962 18.3223L37.6973 17.1211L38.8985 18.3223C38.9864 18.4102 39.0977 18.4512 39.209 18.4512C39.3204 18.4512 39.4317 18.4102 39.5196 18.3223C39.6895 18.1523 39.6895 17.8711 39.5196 17.7012L38.3184 16.5L39.5196 15.2988C39.6895 15.1289 39.6895 14.8477 39.5196 14.6777C39.3497 14.5078 39.0684 14.5078 38.8985 14.6777L37.6973 15.8789L36.4962 14.6777C36.3262 14.5078 36.045 14.5078 35.8751 14.6777C35.7051 14.8477 35.7051 15.1289 35.8751 15.2988L37.0762 16.5L35.8751 17.7012C35.7051 17.8711 35.7051 18.1523 35.8751 18.3223Z" fill="white"/>
<path d="M37.6973 24.5859C37.457 24.5859 37.2578 24.7852 37.2578 25.0254C37.2578 25.2656 37.457 25.4648 37.6973 25.4648C37.9375 25.4648 38.1367 25.2656 38.1367 25.0254C38.1367 24.7852 37.9375 24.5859 37.6973 24.5859Z" fill="white"/>
</g>
<defs>
<clipPath id="clip0">
<rect x="13" y="12" width="30" height="30" fill="white"/>
</clipPath>
</defs>
</svg>
