<svg width="55" height="55" viewBox="0 0 55 55" fill="none" xmlns="http://www.w3.org/2000/svg">
<rect width="55" height="55" rx="27.5" fill="#089741"/>
<path d="M23.6451 27.0004C24.7096 27.0004 25.5806 26.1295 25.5806 25.0649H24.6129C24.6129 25.5972 24.1774 26.0327 23.6451 26.0327C23.1129 26.0327 22.6774 25.5972 22.6774 25.0649H21.7096C21.7096 26.1295 22.5806 27.0004 23.6451 27.0004Z" fill="white"/>
<path d="M21.7097 22.1616C21.7097 22.4277 21.4919 22.6455 21.2258 22.6455C20.9597 22.6455 20.7419 22.4277 20.7419 22.1616C20.7419 21.8955 20.9597 21.6777 21.2258 21.6777C21.4919 21.6777 21.7097 21.8955 21.7097 22.1616Z" fill="white"/>
<path d="M26.5483 22.1616C26.5483 22.4277 26.3306 22.6455 26.0644 22.6455C25.7983 22.6455 25.5806 22.4277 25.5806 22.1616C25.5806 21.8955 25.7983 21.6777 26.0644 21.6777C26.3306 21.6777 26.5483 21.8955 26.5483 22.1616Z" fill="white"/>
<path d="M29.4516 26.5161V30.3629L27.0323 29.5585V28.2036C27.8609 27.5202 28.4718 26.5887 28.7681 25.5242C29.9657 25.379 30.9032 24.369 30.9032 23.1351V19.2641C30.9032 15.254 27.6492 12 23.6452 12C19.6411 12 16.3871 15.254 16.3871 19.2581V23.129C16.3871 24.3629 17.3246 25.379 18.5222 25.5181C18.8185 26.5827 19.4294 27.5141 20.2581 28.1976V29.5524L15.3165 31.2036C13.9315 31.6633 13 32.9577 13 34.4153V39.0968H29.4516V42H43V29.7036L39.8125 26.5161H29.4516ZM40.0968 28.1673L41.3488 29.4194H40.0968V28.1673ZM27.4435 30.7137L26.7056 34.3972L24.3891 32.746L26.6754 30.4597L27.4435 30.7137ZM28.9496 24.496C28.9617 24.3629 28.9677 24.2298 28.9677 24.0968V21.7681C29.5302 21.9677 29.9355 22.5 29.9355 23.129C29.9355 23.7641 29.5181 24.3024 28.9496 24.496ZM17.3548 23.129C17.3548 22.5 17.7601 21.9677 18.3226 21.7681V24.0968C18.3226 24.2298 18.3347 24.3629 18.3407 24.496C17.7722 24.3024 17.3548 23.7641 17.3548 23.129ZM18.4133 20.752C18.0202 20.8185 17.6573 20.9758 17.3548 21.2117V19.2581C17.3548 15.7923 20.1794 12.9677 23.6452 12.9677C27.1109 12.9677 29.9355 15.7923 29.9355 19.2581V21.2056C29.627 20.9758 29.2702 20.8125 28.877 20.746C28.5746 19.6089 27.5403 18.7681 26.3065 18.7681C25.7319 18.7681 25.1694 18.9556 24.7097 19.3004L23.6452 20.1048L22.5806 19.3065C22.121 18.9617 21.5585 18.7742 20.9839 18.7742C19.756 18.7742 18.7218 19.6149 18.4133 20.752ZM19.2903 24.0968V21.4355C19.2903 20.504 20.0524 19.7419 20.9839 19.7419C21.3468 19.7419 21.7097 19.8629 22 20.0806L23.6452 21.3145L25.2903 20.0806C25.5806 19.8629 25.9435 19.7419 26.3065 19.7419C27.2379 19.7419 28 20.504 28 21.4355V24.0968C28 26.498 26.0464 28.4516 23.6452 28.4516C21.244 28.4516 19.2903 26.498 19.2903 24.0968ZM23.6452 29.4194C24.5161 29.4194 25.3387 29.2016 26.0645 28.8327V29.7036L23.6452 32.123L21.2258 29.7036V28.8327C21.9516 29.2016 22.7742 29.4194 23.6452 29.4194ZM20.6089 30.4597L22.8952 32.746L20.5847 34.3972L19.8468 30.7137L20.6089 30.4597ZM17.8387 38.129V35.2258H16.871V38.129H13.9677V34.4153C13.9677 33.375 14.6331 32.4496 15.625 32.123L18.9274 31.0222L19.9315 36.0544L23.6452 33.3992L27.3589 36.0544L28.3629 31.0222L29.4456 31.3851V38.129H17.8387ZM30.4194 41.0323V27.4839H39.129V30.3871H42.0323V41.0323H30.4194Z" fill="white"/>
<path d="M36.2258 40.0643H41.0645V35.2256H36.2258V40.0643ZM37.1935 36.1933H40.0968V39.0966H37.1935V36.1933Z" fill="white"/>
<path d="M31.3871 39.0972H35.258V40.0649H31.3871V39.0972Z" fill="white"/>
<path d="M31.3871 37.1611H35.258V38.1289H31.3871V37.1611Z" fill="white"/>
<path d="M31.3871 35.2256H35.258V36.1933H31.3871V35.2256Z" fill="white"/>
<path d="M31.3871 28.4512H32.3548V29.4189H31.3871V28.4512Z" fill="white"/>
<path d="M33.3226 28.4512H38.1613V29.4189H33.3226V28.4512Z" fill="white"/>
<path d="M31.3871 30.3877H38.1613V31.3554H31.3871V30.3877Z" fill="white"/>
<path d="M40.0968 32.3223H41.0645V33.29H40.0968V32.3223Z" fill="white"/>
<path d="M31.3871 32.3223H39.129V33.29H31.3871V32.3223Z" fill="white"/>
<path d="M37.6774 25.548C40.6109 25.548 43 23.1589 43 20.2254C43 19.0762 42.6311 18.0117 42.0081 17.1407L42.873 16.1972L42.1593 15.544L41.373 16.4028C40.4113 15.4774 39.1109 14.9028 37.6774 14.9028C34.744 14.9028 32.3549 17.2919 32.3549 20.2254C32.3549 23.1589 34.744 25.548 37.6774 25.548ZM37.6774 15.8706C38.8629 15.8706 39.9335 16.3484 40.7198 17.1165L37.1452 21.0178L35.0766 19.3665L34.4718 20.1226L37.242 22.3423L41.3367 17.8786C41.7782 18.5561 42.0323 19.3665 42.0323 20.2315C42.0323 22.6327 40.0786 24.5863 37.6774 24.5863C35.2762 24.5863 33.3226 22.6327 33.3226 20.2315C33.3226 17.8303 35.2762 15.8706 37.6774 15.8706Z" fill="white"/>
</svg>
