<svg width="55" height="55" viewBox="0 0 55 55" fill="none" xmlns="http://www.w3.org/2000/svg">
<rect width="55" height="55" rx="27.5" fill="#710897"/>
<path d="M37.4766 14H19.3984C18.5605 14 17.875 14.6855 17.875 15.5234V17.25C17.875 17.5293 18.1035 17.7578 18.3828 17.7578C18.6621 17.7578 18.8906 17.5293 18.8906 17.25V15.5234C18.8906 15.2441 19.1191 15.0156 19.3984 15.0156H37.4766C37.7559 15.0156 37.9844 15.2441 37.9844 15.5234V38.4766C37.9844 38.7559 37.7559 38.9844 37.4766 38.9844H19.3984C19.1191 38.9844 18.8906 38.7559 18.8906 38.4766V36.8363C18.8906 36.557 18.6621 36.3285 18.3828 36.3285C18.1035 36.3285 17.875 36.557 17.875 36.8363V38.4766C17.875 39.3145 18.5605 40 19.3984 40H37.4766C38.3145 40 39 39.3145 39 38.4766V15.5234C39 14.6855 38.3145 14 37.4766 14Z" fill="white"/>
<path d="M35.034 33.6016H22.8465C22.5672 33.6016 22.3387 33.8301 22.3387 34.1094C22.3387 34.3887 22.5672 34.6172 22.8465 34.6172H35.034C35.3133 34.6172 35.5418 34.3887 35.5418 34.1094C35.5418 33.8301 35.3133 33.6016 35.034 33.6016Z" fill="white"/>
<path d="M35.3945 36.3895C35.2981 36.293 35.1711 36.2422 35.034 36.2422C34.902 36.2422 34.7699 36.298 34.6734 36.3895C34.577 36.4859 34.5262 36.6129 34.5262 36.75C34.5262 36.8871 34.582 37.0141 34.6734 37.1105C34.7699 37.207 34.8969 37.2578 35.034 37.2578C35.166 37.2578 35.2981 37.202 35.3945 37.1105C35.491 37.0141 35.5418 36.8871 35.5418 36.75C35.5418 36.6129 35.486 36.4859 35.3945 36.3895Z" fill="white"/>
<path d="M32.957 36.2422H22.8465C22.5672 36.2422 22.3387 36.4707 22.3387 36.75C22.3387 37.0293 22.5672 37.2578 22.8465 37.2578H32.957C33.2363 37.2578 33.4649 37.0293 33.4649 36.75C33.4649 36.4707 33.2363 36.2422 32.957 36.2422Z" fill="white"/>
<path d="M26.4062 18.4585C23.3847 18.4585 20.9269 20.9163 20.9269 23.9378C20.9269 25.5069 21.5871 26.9237 22.6484 27.9241C22.6687 27.9444 22.684 27.9597 22.7093 27.98C23.6843 28.8737 24.9843 29.4222 26.4113 29.4222C27.8383 29.4222 29.1332 28.8737 30.1133 27.98C30.1336 27.9647 30.1539 27.9444 30.1742 27.9241C31.2355 26.9237 31.8957 25.5069 31.8957 23.9378C31.8855 20.9163 29.4277 18.4585 26.4062 18.4585ZM26.4062 28.4015C25.3652 28.4015 24.4004 28.0409 23.6437 27.4417C24.182 26.421 25.2332 25.7812 26.4062 25.7812C27.5793 25.7812 28.6304 26.421 29.1687 27.4417C28.407 28.0409 27.4472 28.4015 26.4062 28.4015ZM25.3347 23.694V23.2979C25.3347 22.7089 25.8121 22.2315 26.4011 22.2315C26.9902 22.2315 27.4675 22.7089 27.4675 23.2979V23.694C27.4675 24.2831 26.9902 24.7604 26.4011 24.7604C25.8121 24.7604 25.3347 24.2831 25.3347 23.694ZM29.9101 26.6952C29.4429 25.9538 28.7675 25.3901 27.9703 25.0651C28.2902 24.6995 28.4883 24.2171 28.4883 23.694V23.2979C28.4883 22.1503 27.5539 21.2159 26.4062 21.2159C25.2586 21.2159 24.3242 22.1503 24.3242 23.2979V23.694C24.3242 24.2171 24.5222 24.6995 24.8422 25.0651C24.0449 25.3901 23.3644 25.9538 22.9023 26.6952C22.3031 25.9335 21.9426 24.9788 21.9426 23.9378C21.9426 21.4749 23.9433 19.4741 26.4062 19.4741C28.8691 19.4741 30.8699 21.4749 30.8699 23.9378C30.8699 24.9788 30.5093 25.9386 29.9101 26.6952Z" fill="white"/>
<path d="M26.4063 16.0312C22.0492 16.0312 18.4996 19.5758 18.4996 23.9379C18.4996 26.4566 19.6828 28.7062 21.5262 30.1535L15.6355 36.0492C15.2648 36.4199 14.6656 36.4199 14.2949 36.0492C14.1121 35.8715 14.0156 35.6328 14.0156 35.3789C14.0156 35.125 14.1121 34.8863 14.2949 34.7086L17.3113 31.6922C17.5094 31.4941 17.5094 31.1742 17.3113 30.9762C17.1133 30.7781 16.7934 30.7781 16.5953 30.9762L13.5789 33.9926C13.2031 34.3633 13 34.8559 13 35.3789C13 35.902 13.2031 36.3945 13.5738 36.7652C13.9547 37.1461 14.4574 37.3391 14.9602 37.3391C15.4629 37.3391 15.9656 37.1461 16.3465 36.7652L22.3742 30.7375C23.5523 31.4383 24.9285 31.8395 26.4012 31.8395C30.7582 31.8395 34.3078 28.2949 34.3078 23.9328C34.3078 19.5707 30.7633 16.0312 26.4063 16.0312ZM26.4063 30.8289C22.6078 30.8289 19.5152 27.7363 19.5152 23.9379C19.5152 20.1395 22.6078 17.0469 26.4063 17.0469C30.2047 17.0469 33.2973 20.1395 33.2973 23.9379C33.2973 27.7363 30.2047 30.8289 26.4063 30.8289Z" fill="white"/>
<path d="M18.9059 29.3768C18.8094 29.2803 18.6824 29.2295 18.5453 29.2295C18.4133 29.2295 18.2813 29.2854 18.1848 29.3768C18.0883 29.4732 18.0375 29.6002 18.0375 29.7373C18.0375 29.8693 18.0934 30.0014 18.1848 30.0979C18.2813 30.1943 18.4082 30.2451 18.5453 30.2451C18.6773 30.2451 18.8094 30.1893 18.9059 30.0979C19.0023 30.0014 19.0531 29.8744 19.0531 29.7373C19.0531 29.6053 19.0023 29.4732 18.9059 29.3768Z" fill="white"/>
</svg>
